# Blender 4.3.2
# www.blender.org
mtllib satelite.mtl
o Cone.001
v 1.630330 3.680330 -1.875000
v 1.100000 3.150000 -0.300000
v 0.692831 4.617830 -1.325825
v 0.950000 3.300000 -0.212132
v 0.304505 5.006156 -0.000000
v 0.887868 3.362132 -0.000000
v 0.692831 4.617830 1.325825
v 0.950000 3.300000 0.212132
v 1.630330 3.680330 1.875000
v 1.100000 3.150000 0.300000
v 2.567830 2.742830 1.325825
v 1.250000 3.000000 0.212132
v 2.956155 2.354505 -0.000000
v 1.312132 2.937868 -0.000000
v 2.567830 2.742830 -1.325825
v 1.250000 3.000000 -0.212132
v 0.746447 2.796446 -0.450000
v 1.736396 3.786396 -1.875000
v 2.673896 2.848896 -1.325825
v 1.206066 3.256066 -0.300000
v 0.798897 4.723896 -1.325825
v 1.056066 3.406066 -0.212132
v 0.410571 5.112221 -0.000000
v 0.993934 3.468198 -0.000000
v 0.798897 4.723896 1.325825
v 1.056066 3.406066 0.212132
v 1.736396 3.786396 1.875000
v 1.206066 3.256066 0.300000
v 2.673896 2.848896 1.325825
v 1.356066 3.106066 0.212132
v 3.062221 2.460571 -0.000000
v 1.418198 3.043934 -0.000000
v 1.356066 3.106066 -0.212132
v 2.065574 4.164324 -0.034471
v 0.821415 3.958915 -0.768978
v 0.596187 4.184144 -0.000000
v 0.821415 3.958915 0.768978
v 1.365165 3.415165 1.087500
v 1.908915 2.871415 0.768978
v 2.134144 2.646186 -0.000000
v 1.365165 3.415165 -1.087500
v 1.908915 2.871415 -0.768978
v 1.259099 3.309099 -1.087500
v 0.715349 3.852849 -0.768978
v 0.490121 4.078078 -0.000000
v 0.715349 3.852849 0.768978
v 1.259099 3.309099 1.087500
v 1.802849 2.765349 0.768978
v 2.028077 2.540120 -0.000000
v 1.802849 2.765349 -0.768978
v 1.285343 3.530343 -0.137886
v 1.382843 3.432843 -0.195000
v 1.244957 3.570728 -0.000000
v 1.285343 3.530343 0.137886
v 1.382843 3.432843 0.195000
v 1.480343 3.335343 0.137886
v 1.520728 3.294957 -0.000000
v 1.480343 3.335343 -0.137886
v 2.089949 4.139949 -0.048750
v 2.055478 4.174421 -0.000000
v 2.065574 4.164324 0.034471
v 2.089949 4.139949 0.048750
v 2.114324 4.115574 0.034471
v 2.124421 4.105478 -0.000000
v 2.114324 4.115574 -0.034471
v 2.125305 4.175305 -0.000000
v 1.029289 3.079289 -0.300000
v 0.879289 3.229289 -0.212132
v 0.817157 3.291421 -0.000000
v 0.879289 3.229289 0.212132
v 1.029289 3.079289 0.300000
v 1.179289 2.929289 0.212132
v 1.241421 2.867157 -0.000000
v 1.179289 2.929289 -0.212132
v 0.521447 3.021447 -0.318198
v 0.428249 3.114645 -0.000000
v 0.521447 3.021447 0.318198
v 0.746447 2.796446 0.450000
v 0.971447 2.571447 0.318198
v 1.064645 2.478248 -0.000000
v 0.971447 2.571447 -0.318198
v 0.746447 2.796446 -0.000000
vn -0.7555 -0.5956 -0.2730
vn -0.8686 -0.4825 -0.1131
vn -0.8686 -0.4825 0.1131
vn -0.7555 -0.5956 0.2730
vn -0.5956 -0.7555 0.2730
vn -0.4825 -0.8686 0.1131
vn -0.4825 -0.8686 -0.1131
vn -0.5956 -0.7555 -0.2730
vn 0.6533 -0.6533 -0.3827
vn -0.6533 0.6533 0.3827
vn 0.2706 -0.2706 -0.9239
vn 0.2706 -0.2706 0.9239
vn -0.6533 0.6533 -0.3827
vn -0.2706 0.2706 -0.9239
vn 0.6533 -0.6533 0.3827
vn -0.2706 0.2706 0.9239
vn 0.7555 0.5956 0.2730
vn 0.8686 0.4825 0.1131
vn 0.8686 0.4825 -0.1131
vn 0.7555 0.5956 -0.2730
vn 0.5956 0.7555 -0.2730
vn 0.4825 0.8686 -0.1131
vn 0.4825 0.8686 0.1131
vn 0.5956 0.7555 0.2730
vn 0.8648 -0.3532 0.3568
vn -0.3532 0.8648 0.3568
vn 0.8648 -0.3532 -0.3568
vn 0.5081 0.0035 0.8613
vn 0.4151 0.7317 0.5406
vn 0.1911 0.9557 0.2239
vn 0.1911 0.9557 -0.2239
vn 0.4151 0.7317 -0.5406
vn 0.7317 0.4151 -0.5406
vn 0.9557 0.1911 -0.2239
vn 0.9557 0.1911 0.2239
vn 0.7317 0.4151 0.5406
vn -0.4151 -0.7317 -0.5406
vn -0.1911 -0.9557 -0.2239
vn -0.1911 -0.9557 0.2239
vn -0.4151 -0.7317 0.5406
vn -0.7318 -0.4151 0.5406
vn -0.9557 -0.1911 0.2239
vn -0.9557 -0.1911 -0.2239
vn -0.7318 -0.4151 -0.5406
vn 0.7421 -0.5527 0.3792
vn 0.3628 -0.1735 -0.9156
vn -0.1735 0.3628 -0.9156
vn -0.5527 0.7421 0.3792
vn 0.0035 0.5081 -0.8613
vn 0.0035 0.5081 0.8613
vn 0.5081 0.0035 -0.8613
vn -0.3532 0.8648 -0.3568
vn 0.1356 0.8516 -0.5063
vn 0.8516 0.1356 -0.5063
vn 0.1356 0.8516 0.5063
vn 0.8516 0.1356 0.5063
vn -0.1735 0.3628 0.9156
vn -0.5527 0.7421 -0.3792
vn 0.7421 -0.5527 -0.3792
vn 0.3628 -0.1735 0.9156
vn -0.0242 0.4872 0.8730
vn 0.8488 -0.3858 0.3616
vn 0.4872 -0.0242 -0.8730
vn -0.0242 0.4872 -0.8730
vn -0.7071 -0.7071 -0.0000
vn -0.3858 0.8488 -0.3616
vn 0.8488 -0.3858 -0.3616
vn 0.4872 -0.0242 0.8730
vn -0.3858 0.8488 0.3616
vt 1.000000 0.750000
vt 1.000000 1.000000
vt 0.875000 1.000000
vt 0.875000 0.750000
vt 0.750000 1.000000
vt 0.750000 0.750000
vt 0.625000 1.000000
vt 0.625000 0.750000
vt 0.500000 1.000000
vt 0.500000 0.750000
vt 0.375000 1.000000
vt 0.375000 0.750000
vt 0.250000 1.000000
vt 0.250000 0.750000
vt 0.125000 1.000000
vt 0.125000 0.750000
vt 0.000000 1.000000
vt 0.000000 0.750000
vt 0.250000 0.500000
vt 0.125000 0.500000
vt 0.875000 0.500000
vt 0.750000 0.500000
vt 0.500000 0.500000
vt 0.375000 0.500000
vt 0.000000 0.500000
vt 1.000000 0.500000
vt 0.625000 0.500000
s 0
usemtl Material.025
f 43/1/1 2/2/1 4/3/1 44/4/1
f 44/4/2 4/3/2 6/5/2 45/6/2
f 45/6/3 6/5/3 8/7/3 46/8/3
f 46/8/4 8/7/4 10/9/4 47/10/4
f 47/10/5 10/9/5 12/11/5 48/12/5
f 48/12/6 12/11/6 14/13/6 49/14/6
f 49/14/7 14/13/7 16/15/7 50/16/7
f 50/16/8 16/15/8 2/17/8 43/18/8
f 13/19/9 15/20/9 19/20/9 31/19/9
f 8/7/10 6/5/10 69/5/10 70/7/10
f 2/17/11 16/15/11 74/15/11 67/17/11
f 12/11/12 10/9/12 71/9/12 72/11/12
f 6/5/13 4/3/13 68/3/13 69/5/13
f 3/21/13 5/22/13 23/22/13 21/21/13
f 9/23/12 11/24/12 29/24/12 27/23/12
f 15/20/11 1/25/11 18/25/11 19/20/11
f 1/26/14 3/21/14 21/21/14 18/26/14
f 5/22/10 7/27/10 25/27/10 23/22/10
f 11/24/15 13/19/15 31/19/15 29/24/15
f 7/27/16 9/23/16 27/23/16 25/27/16
f 41/1/17 35/4/17 22/3/17 20/2/17
f 35/4/18 36/6/18 24/5/18 22/3/18
f 36/6/19 37/8/19 26/7/19 24/5/19
f 37/8/20 38/10/20 28/9/20 26/7/20
f 38/10/21 39/12/21 30/11/21 28/9/21
f 39/12/22 40/14/22 32/13/22 30/11/22
f 40/14/23 42/16/23 33/15/23 32/13/23
f 42/16/24 41/18/24 20/17/24 33/15/24
f 32/13/25 57/13/25 56/11/25 30/11/25
f 26/7/26 54/7/26 53/5/26 24/5/26
f 33/15/27 58/15/27 57/13/27 32/13/27
f 30/11/28 56/11/28 55/9/28 28/9/28
f 19/20/29 18/25/29 41/18/29 42/16/29
f 31/19/30 19/20/30 42/16/30 40/14/30
f 29/24/31 31/19/31 40/14/31 39/12/31
f 27/23/32 29/24/32 39/12/32 38/10/32
f 25/27/33 27/23/33 38/10/33 37/8/33
f 23/22/34 25/27/34 37/8/34 36/6/34
f 21/21/35 23/22/35 36/6/35 35/4/35
f 18/26/36 21/21/36 35/4/36 41/1/36
f 15/20/37 50/16/37 43/18/37 1/25/37
f 13/19/38 49/14/38 50/16/38 15/20/38
f 11/24/39 48/12/39 49/14/39 13/19/39
f 9/23/40 47/10/40 48/12/40 11/24/40
f 7/27/41 46/8/41 47/10/41 9/23/41
f 5/22/42 45/6/42 46/8/42 7/27/42
f 3/21/43 44/4/43 45/6/43 5/22/43
f 1/26/44 43/1/44 44/4/44 3/21/44
f 57/13/45 64/13/45 63/11/45 56/11/45
f 52/17/46 59/17/46 65/15/46 58/15/46
f 51/3/47 34/3/47 59/2/47 52/2/47
f 54/7/48 61/7/48 60/5/48 53/5/48
f 22/3/49 51/3/49 52/2/49 20/2/49
f 28/9/50 55/9/50 54/7/50 26/7/50
f 20/17/51 52/17/51 58/15/51 33/15/51
f 24/5/52 53/5/52 51/3/52 22/3/52
f 34/3/53 60/5/53 66/7/53 59/2/53
f 59/17/54 66/11/54 64/13/54 65/15/54
f 60/5/55 61/7/55 62/9/55 66/7/55
f 66/11/56 62/9/56 63/11/56 64/13/56
f 55/9/57 62/9/57 61/7/57 54/7/57
f 53/5/58 60/5/58 34/3/58 51/3/58
f 58/15/59 65/15/59 64/13/59 57/13/59
f 56/11/60 63/11/60 62/9/60 55/9/60
f 71/9/61 70/7/61 77/7/61 78/9/61
f 73/13/62 72/11/62 79/11/62 80/13/62
f 67/17/63 74/15/63 81/15/63 17/17/63
f 68/3/64 67/2/64 17/2/64 75/3/64
f 14/13/15 12/11/15 72/11/15 73/13/15
f 4/3/14 2/2/14 67/2/14 68/3/14
f 10/9/16 8/7/16 70/7/16 71/9/16
f 16/15/9 14/13/9 73/13/9 74/15/9
f 75/3/65 17/2/65 82/7/65 76/5/65
f 17/17/65 81/15/65 80/13/65 82/11/65
f 76/5/65 82/7/65 78/9/65 77/7/65
f 82/11/65 80/13/65 79/11/65 78/9/65
f 69/5/66 68/3/66 75/3/66 76/5/66
f 74/15/67 73/13/67 80/13/67 81/15/67
f 72/11/68 71/9/68 78/9/68 79/11/68
f 70/7/69 69/5/69 76/5/69 77/7/69
o Cylinder.004
v -1.082532 0.625000 -0.625000
v 0.000000 2.500000 -1.250000
v -1.082532 0.625000 0.625000
v 1.082532 2.500000 -0.625000
v 0.000000 0.625000 1.250000
v 1.082532 2.500000 0.625000
v 1.082532 0.625000 0.625000
v 0.000000 2.500000 1.250000
v 1.082532 0.625000 -0.625000
v -1.082532 2.500000 0.625000
v 0.000000 0.625000 -1.250000
v -1.082532 2.500000 -0.625000
v 0.000000 0.000000 -1.625000
v 1.407291 0.000000 -0.812500
v 1.407291 0.000000 0.812500
v 0.000000 0.000000 1.625000
v -1.407291 0.000000 0.812500
v -1.407291 0.000000 -0.812500
v 0.000000 3.287500 0.000000
v 0.270633 3.232443 0.156250
v -0.270633 3.232443 0.156250
v 0.000000 3.232443 -0.312500
v 0.270633 3.232443 -0.156250
v -0.270633 3.232443 -0.156250
v 0.000000 3.232443 0.312500
v 0.000000 2.852742 0.937500
v 0.811899 2.852742 0.468750
v -0.811899 2.852742 0.468750
v 0.000000 2.852742 -0.937500
v 0.811899 2.852742 -0.468750
v -0.811899 2.852742 -0.468750
v -0.541266 3.079149 0.312500
v 0.000000 3.079149 -0.625000
v 0.541266 3.079149 -0.312500
v -0.541266 3.079149 -0.312500
v 0.000000 3.079149 0.625000
v 0.541266 3.079149 0.312500
vn 0.5000 -0.0000 -0.8660
vn 1.0000 -0.0000 -0.0000
vn 0.5000 -0.0000 0.8660
vn -0.5000 -0.0000 0.8660
vn -1.0000 -0.0000 -0.0000
vn -0.5000 -0.0000 -0.8660
vn 0.4437 0.4611 -0.7685
vn 0.8874 0.4611 -0.0000
vn 0.4437 0.4611 0.7685
vn -0.4437 0.4611 0.7685
vn -0.8874 0.4611 -0.0000
vn -0.4437 0.4611 -0.7685
vn -0.2464 0.8701 0.4268
vn 0.2464 0.8701 0.4268
vn -0.2464 0.8701 -0.4268
vn 0.2464 0.8701 -0.4268
vn -0.4929 0.8701 -0.0000
vn 0.4929 0.8701 -0.0000
vn 0.7934 0.6087 -0.0000
vn -0.0997 0.9799 -0.1726
vn 0.0997 0.9799 -0.1726
vn -0.1994 0.9799 -0.0000
vn -0.0997 0.9799 0.1726
vn 0.1994 0.9799 -0.0000
vn 0.0997 0.9799 0.1726
vn -0.7934 0.6087 -0.0000
vn 0.3967 0.6087 -0.6871
vn -0.3967 0.6087 -0.6871
vn 0.3967 0.6087 0.6871
vn -0.3967 0.6087 0.6871
vn 0.6417 0.7670 -0.0000
vn -0.6417 0.7670 -0.0000
vn 0.3208 0.7670 -0.5557
vn -0.3208 0.7670 -0.5557
vn 0.3208 0.7670 0.5557
vn -0.3208 0.7670 0.5557
vt 1.000000 0.875000
vt 1.000000 1.000000
vt 0.833333 1.000000
vt 0.833333 0.875000
vt 0.666667 1.000000
vt 0.666667 0.875000
vt 0.500000 1.000000
vt 0.500000 0.875000
vt 0.333333 1.000000
vt 0.333333 0.875000
vt 0.166667 1.000000
vt 0.166667 0.875000
vt -0.000000 1.000000
vt -0.000000 0.875000
vt 1.000000 0.750000
vt 0.833333 0.750000
vt 0.666667 0.750000
vt 0.500000 0.750000
vt 0.333333 0.750000
vt 0.166667 0.750000
vt -0.000000 0.750000
vt 0.291667 1.000000
vt 0.375000 1.000000
vt 0.312500 1.000000
vt 0.270833 1.000000
vt 0.458333 1.000000
vt 0.354167 1.000000
vt 0.125000 1.000000
vt 0.208333 1.000000
vt 0.229167 1.000000
vt 0.187500 1.000000
vt 0.541667 1.000000
vt 0.395833 1.000000
vt 0.687500 1.000000
vt 0.562500 1.000000
vt 0.250000 1.000000
vt 0.187500 1.000000
vt 0.062500 1.000000
vt 0.437500 1.000000
s 0
usemtl Material.026
f 93/28/70 84/29/70 86/30/70 91/31/70
f 91/31/71 86/30/71 88/32/71 89/33/71
f 89/33/72 88/32/72 90/34/72 87/35/72
f 87/35/73 90/34/73 92/36/73 85/37/73
f 85/37/74 92/36/74 94/38/74 83/39/74
f 83/39/75 94/38/75 84/40/75 93/41/75
f 95/42/76 93/28/76 91/31/76 96/43/76
f 96/43/77 91/31/77 89/33/77 97/44/77
f 97/44/78 89/33/78 87/35/78 98/45/78
f 98/45/79 87/35/79 85/37/79 99/46/79
f 99/46/80 85/37/80 83/39/80 100/47/80
f 100/47/81 83/39/81 93/41/81 95/48/81
f 114/49/82 118/50/82 107/51/82 103/52/82
f 119/53/83 102/54/83 107/51/83 118/50/83
f 115/55/84 117/56/84 106/57/84 104/58/84
f 116/59/85 115/55/85 104/58/85 105/60/85
f 117/56/86 114/49/86 103/52/86 106/57/86
f 119/53/87 116/59/87 105/60/87 102/54/87
f 88/32/88 86/30/88 112/61/88 109/62/88
f 104/58/89 106/57/89 101/63/89
f 105/60/90 104/58/90 101/63/90
f 106/57/91 103/52/91 101/63/91
f 103/52/92 107/51/92 101/63/92
f 102/54/93 105/60/93 101/63/93
f 107/51/94 102/54/94 101/63/94
f 94/38/95 92/36/95 110/51/95 113/64/95
f 86/30/96 84/40/96 111/65/96 112/61/96
f 84/40/97 94/38/97 113/64/97 111/65/97
f 88/32/98 109/62/98 108/66/98 90/34/98
f 92/36/99 90/34/99 108/66/99 110/51/99
f 109/62/100 112/61/100 116/59/100 119/53/100
f 113/64/101 110/51/101 114/49/101 117/56/101
f 112/61/102 111/65/102 115/55/102 116/59/102
f 111/65/103 113/64/103 117/56/103 115/55/103
f 109/62/104 119/53/104 118/50/104 108/66/104
f 110/51/105 108/66/105 118/50/105 114/49/105
