# Blender 4.3.2
# www.blender.org
mtllib shop.mtl
o Cube.008
v 1.000000 -3.000000 0.350000
v 0.350000 -3.000000 1.000000
v 0.350000 -3.000000 -1.000000
v 1.000000 -3.000000 -0.350000
v -1.000000 -3.000000 -0.350000
v -0.350000 -3.000000 -1.000000
v -0.350000 -3.000000 1.000000
v -1.000000 -3.000000 0.350000
v -0.100000 -0.750000 1.000000
v -1.000000 -1.000000 0.350000
v -1.000000 1.000000 0.350000
v -0.100000 0.750000 1.000000
v -1.000000 -1.000000 -0.350000
v -0.100000 -0.750000 -1.000000
v -0.100000 0.750000 -1.000000
v -1.000000 1.000000 -0.350000
v 1.000000 -1.000000 0.350000
v 0.100000 -0.750000 1.000000
v 0.100000 0.750000 1.000000
v 1.000000 1.000000 0.350000
v 0.100000 -0.750000 -1.000000
v 1.000000 -1.000000 -0.350000
v 1.000000 1.000000 -0.350000
v 0.100000 0.750000 -1.000000
v -0.140812 3.300000 0.325000
v -0.325000 3.300000 0.140812
v -0.325000 3.300000 -0.140812
v -0.140812 3.300000 -0.325000
v 0.140812 3.300000 -0.325000
v 0.325000 3.300000 -0.140812
v 0.325000 3.300000 0.140812
v 0.140812 3.300000 0.325000
v -0.350000 -1.000000 1.000000
v -0.350000 1.000000 1.000000
v -0.350000 1.000000 -1.000000
v -0.350000 -1.000000 -1.000000
v 0.350000 -1.000000 -1.000000
v 0.350000 1.000000 -1.000000
v 0.350000 1.000000 1.000000
v 0.350000 -1.000000 1.000000
v -0.100000 -0.750000 5.000000
v -0.100000 0.750000 5.000000
v -0.100000 0.750000 -5.000000
v -0.100000 -0.750000 -5.000000
v 0.100000 -0.750000 -5.000000
v 0.100000 0.750000 -5.000000
v 0.100000 0.750000 5.000000
v 0.100000 -0.750000 5.000000
v -0.350000 -3.500000 0.350015
v -0.350000 -3.500000 -0.349979
v 0.350000 -3.500000 0.350012
v 0.350000 -3.500000 -0.349975
v -0.350000 3.000000 1.000000
v -1.000000 3.000000 0.350000
v -1.000000 3.000000 -0.350000
v -0.350000 3.000000 -1.000000
v 0.350000 3.000000 -1.000000
v 1.000000 3.000000 -0.350000
v 1.000000 3.000000 0.350000
v 0.350000 3.000000 1.000000
v -0.140812 3.400000 0.325000
v -0.325000 3.400000 0.140812
v -0.325000 3.400000 -0.140812
v -0.140812 3.400000 -0.325000
v 0.140812 3.400000 -0.325000
v 0.325000 3.400000 -0.140812
v 0.325000 3.400000 0.140812
v 0.140812 3.400000 0.325000
v -0.140812 3.500000 0.325000
v -0.325000 3.500000 0.140812
v -0.325000 3.500000 -0.140812
v -0.140812 3.500000 -0.325000
v 0.140812 3.500000 -0.325000
v 0.325000 3.500000 -0.140812
v 0.325000 3.500000 0.140812
v 0.140812 3.500000 0.325000
v -0.644431 4.010288 1.710819
v -1.710819 4.010288 0.644431
v -1.710819 4.010288 -0.644431
v -0.644431 4.010288 -1.710819
v 0.644431 4.010288 -1.710819
v 1.710819 4.010288 -0.644431
v 1.710819 4.010288 0.644431
v 0.644431 4.010288 1.710819
v -0.644431 4.110288 1.710819
v -1.710819 4.110288 0.644431
v -1.710819 4.110288 -0.644431
v -0.644431 4.110288 -1.710819
v 0.644431 4.110288 -1.710819
v 1.710819 4.110288 -0.644431
v 1.710819 4.110288 0.644431
v 0.644431 4.110288 1.710819
v -0.048749 5.300000 0.021122
v 0.021123 5.300000 -0.048750
v -0.021121 5.300000 0.048750
v -0.021121 5.300000 -0.048750
v -0.048749 5.300000 -0.021122
v 0.021123 5.300000 0.048750
v 0.048751 5.300000 -0.021122
v 0.048751 5.300000 0.021122
v 0.070406 4.000000 0.162500
v 0.162500 4.000000 0.070406
v 0.162500 4.000000 -0.070406
v 0.070406 4.000000 -0.162500
v -0.070406 4.000000 -0.162500
v -0.162500 4.000000 -0.070406
v -0.162500 4.000000 0.070406
v -0.070406 4.000000 0.162500
v 0.737973 3.500000 -0.290890
v 1.297846 3.705011 -0.494353
v 1.297846 3.705011 0.494353
v 0.737973 3.500000 0.290890
v 0.290890 3.500000 0.737973
v 0.494353 3.705011 1.297846
v -0.290890 3.500000 0.737973
v -0.494353 3.705011 1.297846
v 0.494353 3.705011 -1.297846
v 0.290890 3.500000 -0.737973
v -0.290890 3.500000 -0.737973
v -0.494353 3.705011 -1.297846
v -1.297846 3.705011 0.494353
v -0.737973 3.500000 0.290890
v -0.737973 3.500000 -0.290890
v -1.297846 3.705011 -0.494353
v 0.290890 3.400000 -0.737973
v 0.494353 3.605011 -1.297846
v -0.290890 3.400000 -0.737973
v -0.494353 3.605011 -1.297846
v 0.737973 3.400000 0.290890
v 1.297846 3.605011 0.494353
v 1.297846 3.605011 -0.494353
v 0.737973 3.400000 -0.290890
v -0.494353 3.605011 1.297846
v -0.290890 3.400000 0.737973
v -0.737973 3.400000 0.290890
v -1.297846 3.605011 0.494353
v -1.297846 3.605011 -0.494353
v -0.737973 3.400000 -0.290890
v 0.290890 3.400000 0.737973
v 0.494353 3.605011 1.297846
v 0.000001 5.329999 -0.000000
vn 1.0000 -0.0000 -0.0000
vn -0.0000 -0.0000 -1.0000
vn -1.0000 -0.0000 -0.0000
vn -0.0000 -1.0000 -0.0000
vn -0.7071 -0.0000 0.7071
vn -0.7071 -0.0000 -0.7071
vn 0.7071 -0.0000 -0.7071
vn 0.7071 -0.0000 0.7071
vn -0.0000 -0.0000 1.0000
vn -0.0000 1.0000 -0.0000
vn 0.5206 -0.6767 0.5206
vn -0.0000 -0.7926 0.6097
vn -0.5206 -0.6767 0.5206
vn -0.0000 -0.7926 -0.6097
vn -0.6097 -0.7926 -0.0000
vn -0.5206 -0.6768 -0.5206
vn 0.6097 -0.7926 -0.0000
vn 0.5206 -0.6768 -0.5206
vn -0.3059 0.9016 0.3059
vn -0.3059 0.9016 -0.3059
vn 0.3059 0.9016 -0.3059
vn 0.3059 0.9016 0.3059
vn -0.4061 0.9138 -0.0000
vn -0.0000 0.9138 0.4061
vn 0.4061 0.9138 -0.0000
vn -0.0000 0.9138 -0.4061
vn -0.6716 0.3128 -0.6716
vn -0.5044 0.7008 -0.5044
vn -0.5044 -0.7008 -0.5044
vn 0.5044 0.7008 -0.5044
vn -0.0000 -0.7137 0.7004
vn 0.7004 0.7137 -0.0000
vn -0.0000 0.0872 -0.9962
vn -0.7004 0.7137 -0.0000
vn 0.5044 0.7008 0.5044
vn -0.0000 0.7137 -0.7004
vn -0.5044 0.7008 0.5044
vn -0.0000 0.7137 0.7004
vn -0.7004 -0.7137 -0.0000
vn 0.7004 -0.7137 -0.0000
vn -0.0000 -0.7137 -0.7004
vn 0.5044 -0.7008 0.5044
vn 0.5044 -0.7008 -0.5044
vn -0.5044 -0.7008 0.5044
vn 0.3438 0.9390 -0.0000
vn -0.2511 0.9348 -0.2511
vn -0.2511 0.9348 0.2511
vn 0.2511 0.9348 0.2511
vn -0.0000 0.9390 -0.3438
vn -0.3438 0.9390 -0.0000
vn -0.0000 0.9390 0.3438
vn 0.2511 0.9348 -0.2511
vn -0.0000 -0.9390 0.3438
vn -0.3438 -0.9390 -0.0000
vn 0.2511 -0.9348 0.2511
vn 0.2511 -0.9348 -0.2511
vn 0.3438 -0.9390 -0.0000
vn -0.0000 -0.9390 -0.3438
vn -0.2511 -0.9348 0.2511
vn -0.2511 -0.9348 -0.2511
vn 0.9510 0.3091 -0.0000
vn -0.9510 0.3091 -0.0000
vn 0.6716 0.3128 -0.6716
vn -0.6716 0.3128 0.6716
vn -0.0000 0.3091 -0.9510
vn -0.0000 0.3091 0.9510
vn 0.6716 0.3128 0.6716
vn -0.5241 0.8517 -0.0000
vn 0.9962 0.0872 -0.0000
vn 0.7043 0.0883 -0.7043
vn 0.7043 0.0883 0.7043
vn -0.9962 0.0872 -0.0000
vn -0.7043 0.0883 0.7043
vn -0.7043 0.0883 -0.7043
vn -0.0000 0.0872 0.9962
vn -0.3670 0.8548 0.3670
vn -0.0000 0.8517 -0.5241
vn 0.5241 0.8517 -0.0000
vn -0.3670 0.8548 -0.3670
vn 0.3670 0.8548 0.3670
vn -0.0000 0.8517 0.5241
vn 0.3670 0.8548 -0.3670
vt 0.406250 0.862500
vt 0.593750 0.862500
vt 0.375000 0.581250
vt 0.625000 0.581250
vt 0.625000 0.668750
vt 0.375000 0.668750
vt 0.625000 0.418750
vt 0.625000 0.331250
vt 0.375000 0.081250
vt 0.625000 0.081250
vt 0.625000 0.168750
vt 0.375000 0.168750
vt 0.406250 0.887500
vt 0.375000 0.000000
vt 0.625000 0.000000
vt 0.375000 0.331250
vt 0.375000 0.418750
vt 0.625000 0.831250
vt 0.375000 0.831250
vt 0.375000 0.918750
vt 0.741199 0.665625
vt 0.709375 0.633801
vt 0.625000 0.918750
vt 0.593750 0.887500
vt 0.593750 0.362500
vt 0.406250 0.362500
vt 0.406250 0.387500
vt 0.593750 0.387500
vt 0.375000 0.697190
vt 0.375000 0.727817
vt 0.375000 0.107654
vt 0.375000 0.522194
vt 0.375000 0.552818
vt 0.375000 0.223590
vt 0.758801 0.665625
vt 0.790625 0.633801
vt 0.875000 0.668750
vt 0.793750 0.750000
vt 0.790625 0.616199
vt 0.758801 0.584375
vt 0.793750 0.500000
vt 0.875000 0.581250
vt 0.741199 0.584375
vt 0.709375 0.616199
vt 0.706250 0.500000
vt 0.706250 0.750000
vt 0.750000 0.625000
s 0
usemtl Material.035
f 22/3/1 23/4/1 20/5/1 17/6/1
f 38/7/2 35/8/2 56/8/2 57/7/2
f 10/9/3 11/10/3 16/11/3 13/12/3
f 33/14/5 34/15/5 11/10/5 10/9/5
f 35/8/6 36/16/6 13/12/6 16/11/6
f 23/4/7 22/3/7 37/17/7 38/7/7
f 39/18/8 40/19/8 17/6/8 20/5/8
f 10/9/3 13/12/3 5/12/3 8/9/3
f 17/6/8 40/19/8 2/19/8 1/6/8
f 37/17/7 22/3/7 4/3/7 3/17/7
f 40/19/9 33/20/9 7/20/9 2/19/9
f 36/16/2 37/17/2 3/17/2 6/16/2
f 13/12/6 36/16/6 6/16/6 5/12/6
f 33/14/5 10/9/5 8/9/5 7/14/5
f 22/3/1 17/6/1 1/6/1 4/3/1
f 32/21/8 31/22/8 67/22/8 68/21/8
f 39/18/8 20/5/8 59/5/8 60/18/8
f 34/23/9 39/18/9 60/18/9 53/23/9
f 23/4/7 38/7/7 57/7/7 58/4/7
f 35/8/6 16/11/6 55/11/6 56/8/6
f 11/10/5 34/15/5 53/15/5 54/10/5
f 20/5/1 23/4/1 58/4/1 59/5/1
f 16/11/3 11/10/3 54/10/3 55/11/3
f 9/13/9 12/24/9 34/23/9 33/20/9
f 15/25/2 14/26/2 36/16/2 35/8/2
f 21/27/2 24/28/2 38/7/2 37/17/2
f 19/2/9 18/1/9 40/19/9 39/18/9
f 14/26/2 21/27/2 37/17/2 36/16/2
f 18/1/9 9/13/9 33/20/9 40/19/9
f 12/24/9 19/2/9 39/18/9 34/23/9
f 24/28/2 15/25/2 35/8/2 38/7/2
f 1/6/11 2/19/11 51/29/11
f 2/19/12 7/20/12 49/30/12 51/29/12
f 7/14/13 8/9/13 49/31/13
f 51/29/4 49/30/4 50/32/4 52/33/4
f 52/33/14 50/32/14 6/16/14 3/17/14
f 49/31/15 8/9/15 5/12/15 50/34/15
f 50/34/16 5/12/16 6/16/16
f 51/29/17 52/33/17 4/3/17 1/6/17
f 4/3/18 52/33/18 3/17/18
f 25/35/19 26/36/19 54/37/19 53/38/19
f 27/39/20 28/40/20 56/41/20 55/42/20
f 29/43/21 30/44/21 58/4/21 57/45/21
f 31/22/22 32/21/22 60/46/22 59/5/22
f 26/36/23 27/39/23 55/42/23 54/37/23
f 32/21/24 25/35/24 53/38/24 60/46/24
f 30/44/25 31/22/25 59/5/25 58/4/25
f 28/40/26 29/43/26 57/45/26 56/41/26
f 28/40/6 27/39/6 63/39/6 64/40/6
f 31/22/1 30/44/1 66/44/1 67/22/1
f 27/39/3 26/36/3 62/36/3 63/39/3
f 30/44/7 29/43/7 65/43/7 66/44/7
f 26/36/5 25/35/5 61/35/5 62/36/5
f 29/43/2 28/40/2 64/40/2 65/43/2
f 25/35/9 32/21/9 68/21/9 61/35/9
usemtl Material.036
f 69/35/10 70/36/10 122/36/10 115/35/10
f 72/40/27 71/39/27 106/39/27 105/40/27
f 64/40/4 63/39/4 138/39/4 127/40/4
f 72/40/10 73/43/10 118/43/10 119/40/10
f 61/35/4 68/21/4 139/21/4 134/35/4
f 111/22/28 114/21/28 92/21/28 91/22/28
f 128/40/29 137/39/29 79/39/29 80/40/29
f 116/35/30 121/36/30 86/36/30 85/35/30
f 133/35/31 140/21/31 84/21/31 77/35/31
f 81/43/2 80/40/2 88/40/2 89/43/2
f 77/35/9 84/21/9 92/21/9 85/35/9
f 84/21/8 83/22/8 91/22/8 92/21/8
f 80/40/6 79/39/6 87/39/6 88/40/6
f 83/22/1 82/44/1 90/44/1 91/22/1
f 79/39/3 78/36/3 86/36/3 87/39/3
f 82/44/7 81/43/7 89/43/7 90/44/7
f 78/36/5 77/35/5 85/35/5 86/36/5
f 66/44/4 65/43/4 125/43/4 132/44/4
f 121/36/32 124/39/32 87/39/32 86/36/32
f 68/21/4 67/22/4 129/22/4 139/21/4
f 73/43/10 74/44/10 109/44/10 118/43/10
f 104/43/33 105/40/33 96/40/33 94/43/33
f 75/22/10 76/21/10 113/21/10 112/22/10
f 62/36/4 61/35/4 134/35/4 135/36/4
f 70/36/10 71/39/10 123/39/10 122/36/10
f 65/43/4 64/40/4 127/40/4 125/43/4
f 76/21/10 69/35/10 115/35/10 113/21/10
f 110/44/34 111/22/34 91/22/34 90/44/34
f 124/39/35 120/40/35 88/40/35 87/39/35
f 114/21/36 116/35/36 85/35/36 92/21/36
f 117/43/37 110/44/37 90/44/37 89/43/37
f 71/39/10 72/40/10 119/40/10 123/39/10
f 120/40/38 117/43/38 89/43/38 88/40/38
f 63/39/4 62/36/4 135/36/4 138/39/4
f 137/39/39 136/36/39 78/36/39 79/39/39
f 130/22/40 131/44/40 82/44/40 83/22/40
f 126/43/41 128/40/41 80/40/41 81/43/41
f 140/21/42 130/22/42 83/22/42 84/21/42
f 131/44/43 126/43/43 81/43/43 82/44/43
f 136/36/44 133/35/44 77/35/44 78/36/44
f 67/22/4 66/44/4 132/44/4 129/22/4
f 124/39/45 121/36/45 122/36/45 123/39/45
f 114/21/46 111/22/46 112/22/46 113/21/46
f 110/44/47 117/43/47 118/43/47 109/44/47
f 120/40/48 124/39/48 123/39/48 119/40/48
f 116/35/49 114/21/49 113/21/49 115/35/49
f 111/22/50 110/44/50 109/44/50 112/22/50
f 117/43/51 120/40/51 119/40/51 118/43/51
f 121/36/52 116/35/52 115/35/52 122/36/52
f 140/21/53 133/35/53 134/35/53 139/21/53
f 136/36/54 137/39/54 138/39/54 135/36/54
f 130/22/55 140/21/55 139/21/55 129/22/55
f 126/43/56 131/44/56 132/44/56 125/43/56
f 131/44/57 130/22/57 129/22/57 132/44/57
f 128/40/58 126/43/58 125/43/58 127/40/58
f 133/35/59 136/36/59 135/36/59 134/35/59
f 137/39/60 128/40/60 127/40/60 138/39/60
f 74/44/10 75/22/10 112/22/10 109/44/10
f 75/22/61 74/44/61 103/44/61 102/22/61
f 71/39/62 70/36/62 107/36/62 106/39/62
f 74/44/63 73/43/63 104/43/63 103/44/63
f 70/36/64 69/35/64 108/35/64 107/36/64
f 73/43/65 72/40/65 105/40/65 104/43/65
f 69/35/66 76/21/66 101/21/66 108/35/66
f 76/21/67 75/22/67 102/22/67 101/21/67
f 97/39/68 93/36/68 141/47/68
f 102/22/69 103/44/69 99/44/69 100/22/69
f 103/44/70 104/43/70 94/43/70 99/44/70
f 101/21/71 102/22/71 100/22/71 98/21/71
f 106/39/72 107/36/72 93/36/72 97/39/72
f 107/36/73 108/35/73 95/35/73 93/36/73
f 105/40/74 106/39/74 97/39/74 96/40/74
f 108/35/75 101/21/75 98/21/75 95/35/75
f 93/36/76 95/35/76 141/47/76
f 96/40/77 141/47/77 94/43/77
f 141/47/78 100/22/78 99/44/78
f 141/47/79 96/40/79 97/39/79
f 100/22/80 141/47/80 98/21/80
f 141/47/81 95/35/81 98/21/81
f 94/43/82 141/47/82 99/44/82
usemtl Material.037
f 18/1/1 19/2/1 47/2/1 48/1/1
f 9/13/4 18/1/4 48/1/4 41/13/4
f 48/1/9 47/2/9 42/24/9 41/13/9
f 44/26/2 43/25/2 46/28/2 45/27/2
f 14/26/3 15/25/3 43/25/3 44/26/3
f 19/2/10 12/24/10 42/24/10 47/2/10
f 21/27/4 14/26/4 44/26/4 45/27/4
f 24/28/1 21/27/1 45/27/1 46/28/1
f 12/24/3 9/13/3 41/13/3 42/24/3
f 15/25/10 24/28/10 46/28/10 43/25/10
