# Blender 4.3.2
# www.blender.org
mtllib turret.mtl
o Cube.001
v 0.610500 2.547616 1.110000
v 0.610500 2.547616 -1.110000
v -0.610500 2.547616 -1.110000
v -0.610500 2.547616 1.110000
v -1.221000 1.110000 2.220000
v -1.221000 1.110000 -2.220000
v 1.221000 1.110000 2.220000
v 1.221000 1.110000 -2.220000
v -1.221000 0.000000 2.220000
v -1.221000 0.000000 -2.220000
v 1.221000 0.000000 -2.220000
v 1.221000 0.000000 2.220000
v 1.053113 1.828808 -1.914750
v 1.053113 1.828808 1.914750
v -1.053113 1.828808 1.914750
v -1.053113 1.828808 -1.914750
v -0.749250 2.769617 0.000000
v -0.000000 2.769617 0.749250
v -0.000000 2.769617 -0.749250
v 0.749250 2.769617 0.000000
v -0.000000 4.823117 0.359648
v -0.359648 4.823117 0.000000
v -0.000000 4.823117 -0.359648
v 0.359648 4.823117 0.000000
v -0.000000 4.823117 0.524475
v -0.524475 4.823117 0.000000
v -0.000000 4.823117 -0.524475
v 0.524475 4.823117 0.000000
v -0.000000 2.769617 0.513783
v -0.513783 2.769617 0.000000
v -0.000000 2.769617 -0.513783
v 0.513783 2.769617 0.000000
v 0.524475 4.046117 0.000000
v -0.000000 4.046117 0.524475
v -0.524475 4.046117 0.000000
v -0.000000 4.046117 -0.524475
v 0.359648 4.046117 0.000000
v -0.000000 4.046117 0.359648
v -0.359648 4.046117 0.000000
v -0.000000 4.046117 -0.359648
v -1.298700 2.547616 0.000000
v -2.597400 0.000000 0.000000
v -2.597400 1.110000 0.000000
v -2.240258 1.828808 0.000000
v 1.298700 2.547616 0.000000
v 2.597400 1.110000 0.000000
v 2.597400 0.000000 0.000000
v 2.240258 1.828808 0.000000
vn -0.7830 0.3890 -0.4854
vn 0.7830 0.3890 0.4854
vn 0.8499 -0.0000 -0.5269
vn -0.0000 -0.0000 -1.0000
vn -0.0000 -0.0000 1.0000
vn -0.7830 0.3890 0.4854
vn -0.0000 0.7458 0.6662
vn -0.0000 0.7458 -0.6662
vn -0.0000 0.3909 -0.9204
vn 0.5679 0.7439 -0.3521
vn -0.5679 0.7439 0.3521
vn -0.5679 0.7439 -0.3521
vn -0.8499 -0.0000 0.5269
vn -0.0000 0.3909 0.9204
vn -0.2875 0.9316 -0.2223
vn -0.0000 0.8517 0.5241
vn -0.2875 0.9316 0.2223
vn 0.2875 0.9316 0.2223
vn 0.7071 -0.0000 0.7071
vn -0.0000 0.8517 -0.5241
vn -0.7045 -0.0851 -0.7045
vn -0.7071 -0.0000 0.7071
vn 0.7071 -0.0000 -0.7071
vn -0.7071 -0.0000 -0.7071
vn -0.0000 1.0000 -0.0000
vn 0.7045 -0.0851 -0.7045
vn -0.7045 -0.0851 0.7045
vn 0.7045 -0.0851 0.7045
vn -0.7017 0.1236 -0.7017
vn 0.7017 0.1236 -0.7017
vn -0.7017 0.1236 0.7017
vn 0.7017 0.1236 0.7017
vn -0.8499 -0.0000 -0.5269
vn 0.5679 0.7439 0.3521
vn 0.2875 0.9316 -0.2223
vn 0.8499 -0.0000 0.5269
vn 0.7830 0.3890 -0.4854
vt 0.625000 0.306250
vt 0.625000 0.125000
vt 0.625000 0.806250
vt 0.625000 0.625000
vt 0.500000 0.443750
vt 0.625000 0.443750
vt 0.500000 0.625000
vt 0.500000 0.306250
vt 0.500000 0.806250
vt 0.625000 0.943750
vt 0.500000 0.943750
vt 0.625000 0.000000
vt 0.500000 0.000000
vt 0.500000 0.125000
vt 0.625000 0.193750
vt 0.625000 0.306250
vt 0.625000 0.197379
vt 0.625000 0.358871
vt 0.625000 0.220352
vt 0.625000 0.327059
vt 0.625000 0.213831
vt 0.625000 0.295008
s 0
usemtl Material.019
f 6/1/1 43/2/1 44/2/1 16/1/1
f 7/3/2 46/4/2 48/4/2 14/3/2
f 11/5/3 8/6/3 46/4/3 47/7/3
f 10/8/4 6/1/4 8/6/4 11/5/4
f 12/9/5 7/3/5 5/10/5 9/11/5
f 43/2/6 5/12/6 15/12/6 44/2/6
f 15/10/7 14/3/7 1/3/7 4/10/7
f 13/6/8 16/1/8 3/1/8 2/6/8
f 8/6/9 6/1/9 16/1/9 13/6/9
f 48/4/10 13/6/10 2/6/10 45/4/10
f 15/12/11 4/12/11 41/2/11 44/2/11
f 16/1/12 44/2/12 41/2/12 3/1/12
f 9/13/13 5/12/13 43/2/13 42/14/13
f 5/10/14 7/3/14 14/3/14 15/10/14
f 41/2/15 17/15/15 19/16/15 3/1/15
f 18/17/16 4/12/16 1/3/16
f 4/12/17 18/17/17 17/15/17 41/2/17
f 1/3/18 45/4/18 20/18/18 18/17/18
f 2/6/20 3/1/20 19/16/20
f 6/1/33 10/8/33 42/14/33 43/2/33
f 14/3/34 48/4/34 45/4/34 1/3/34
f 20/18/35 45/4/35 2/6/35 19/16/35
f 7/3/36 12/9/36 47/7/36 46/4/36
f 8/6/37 13/6/37 48/4/37 46/4/37
usemtl Material.020
f 34/17/19 33/18/19 28/18/19 25/17/19
f 38/19/21 37/20/21 32/20/21 29/19/21
f 35/15/22 34/17/22 25/17/22 26/15/22
f 33/18/23 36/16/23 27/16/23 28/18/23
f 36/16/24 35/15/24 26/15/24 27/16/24
f 21/19/25 22/21/25 26/15/25 25/17/25
f 22/21/25 23/22/25 27/16/25 26/15/25
f 24/20/25 21/19/25 25/17/25 28/18/25
f 23/22/25 24/20/25 28/18/25 27/16/25
f 29/19/25 32/20/25 31/22/25 30/21/25
f 39/21/26 38/19/26 29/19/26 30/21/26
f 37/20/27 40/22/27 31/22/27 32/20/27
f 40/22/28 39/21/28 30/21/28 31/22/28
f 19/16/29 17/15/29 35/15/29 36/16/29
f 20/18/30 19/16/30 36/16/30 33/18/30
f 17/15/31 18/17/31 34/17/31 35/15/31
f 18/17/32 20/18/32 33/18/32 34/17/32
f 23/22/19 22/21/19 39/21/19 40/22/19
f 24/20/22 23/22/22 40/22/22 37/20/22
f 22/21/23 21/19/23 38/19/23 39/21/23
f 21/19/24 24/20/24 37/20/24 38/19/24
