# Blender 4.3.2
# www.blender.org
mtllib turret_cannon.mtl
o Cube.010
v -0.749250 2.569617 0.000000
v -0.000000 2.569617 0.749250
v -0.000000 2.569617 -0.749250
v 0.749250 2.569617 0.000000
v -0.000000 4.623117 0.359648
v -0.359648 4.623117 0.000000
v -0.000000 4.623117 -0.359648
v 0.359648 4.623117 0.000000
v -0.000000 4.623117 0.524475
v -0.524475 4.623117 0.000000
v -0.000000 4.623117 -0.524475
v 0.524475 4.623117 0.000000
v -0.000000 2.569617 0.513783
v -0.513783 2.569617 0.000000
v -0.000000 2.569617 -0.513783
v 0.513783 2.569617 0.000000
v 0.524475 3.846117 0.000000
v -0.000000 3.846117 0.524475
v -0.524475 3.846117 0.000000
v -0.000000 3.846117 -0.524475
v 0.359648 3.846117 0.000000
v -0.000000 3.846117 0.359648
v -0.359648 3.846117 0.000000
v -0.000000 3.846117 -0.359648
vn 0.7071 -0.0000 0.7071
vn -0.7045 -0.0851 -0.7045
vn -0.7071 -0.0000 0.7071
vn 0.7071 -0.0000 -0.7071
vn -0.7071 -0.0000 -0.7071
vn -0.0000 1.0000 -0.0000
vn 0.7045 -0.0851 -0.7045
vn -0.7045 -0.0851 0.7045
vn 0.7045 -0.0851 0.7045
vn -0.7017 0.1236 -0.7017
vn 0.7017 0.1236 -0.7017
vn -0.7017 0.1236 0.7017
vn 0.7017 0.1236 0.7017
vt 0.625000 0.197379
vt 0.625000 0.358871
vt 0.625000 0.220352
vt 0.625000 0.327059
vt 0.625000 0.193750
vt 0.625000 0.306250
vt 0.625000 0.213831
vt 0.625000 0.295008
s 0
usemtl Material.020
f 18/1/1 17/2/1 12/2/1 9/1/1
f 22/3/2 21/4/2 16/4/2 13/3/2
f 19/5/3 18/1/3 9/1/3 10/5/3
f 17/2/4 20/6/4 11/6/4 12/2/4
f 20/6/5 19/5/5 10/5/5 11/6/5
f 5/3/6 6/7/6 10/5/6 9/1/6
f 6/7/6 7/8/6 11/6/6 10/5/6
f 8/4/6 5/3/6 9/1/6 12/2/6
f 7/8/6 8/4/6 12/2/6 11/6/6
f 13/3/6 16/4/6 15/8/6 14/7/6
f 23/7/7 22/3/7 13/3/7 14/7/7
f 21/4/8 24/8/8 15/8/8 16/4/8
f 24/8/9 23/7/9 14/7/9 15/8/9
f 3/6/10 1/5/10 19/5/10 20/6/10
f 4/2/11 3/6/11 20/6/11 17/2/11
f 1/5/12 2/1/12 18/1/12 19/5/12
f 2/1/13 4/2/13 17/2/13 18/1/13
f 7/8/1 6/7/1 23/7/1 24/8/1
f 8/4/3 7/8/3 24/8/3 21/4/3
f 6/7/4 5/3/4 22/3/4 23/7/4
f 5/3/5 8/4/5 21/4/5 22/3/5
