# Blender 4.3.2
# www.blender.org
mtllib wrog.mtl
o Cube.004
v -2.340014 -0.136472 -1.000000
v 0.263223 0.250000 -0.559194
v -1.500000 0.499999 0.000000
v 1.100000 0.250000 0.000000
v -1.733594 -0.012191 -0.500000
v 0.800000 0.250000 -0.250000
v -1.733594 0.237809 -0.500000
v -1.500000 -0.000001 0.000000
v -0.153603 0.424721 0.000000
v -0.560974 0.463892 0.000000
v -0.923686 0.055415 0.000000
v -0.516314 0.094585 0.000000
v -0.683884 0.250000 -0.795971
v -1.116116 0.243372 -0.904029
v -1.019901 0.347293 -0.652014
v -0.600099 0.327707 -0.597986
v -1.019901 0.096310 -0.452014
v -0.600099 0.115895 -0.397986
v -0.206378 0.527839 0.000000
v -0.627739 0.454137 -0.493839
v -0.850997 0.464553 -0.522573
v -0.491538 0.555259 0.000000
v -2.633317 0.918235 0.000000
v 0.950000 0.250000 -0.125000
v -0.376851 0.376214 -0.298993
v -0.971793 0.075863 -0.226007
v -1.534161 0.382573 -0.257601
v -1.516797 0.003904 -0.250000
v -0.790437 0.405592 -0.326007
v -0.558207 0.105240 -0.198993
v -0.417059 0.490988 -0.246920
v -0.671268 0.509906 -0.261286
v -1.516797 0.243904 -0.250000
v 0.286574 0.313107 -0.211996
v 0.337119 0.356327 0.000000
v -2.183456 0.578022 -0.250000
v 1.025000 0.250000 -0.062500
v -0.675706 0.434742 -0.163004
v -0.537261 0.099913 -0.099496
v -0.581403 0.532582 -0.130643
v -0.265227 0.400468 -0.149496
v -0.947739 0.065639 -0.113004
v -1.517081 0.441286 -0.128800
v -1.508399 0.001951 -0.125000
v -0.311719 0.509414 -0.123460
v 0.164799 0.351471 -0.117082
v 0.290391 0.292070 -0.173598
v 0.228667 0.310692 -0.129098
v -0.340264 0.316220 -0.546542
v 0.097322 0.289000 -0.424646
v -0.382633 0.338474 -0.447832
v -0.410502 0.281173 -0.670342
v -0.354099 0.244980 -0.562651
v -0.393942 0.269544 -0.464806
v -0.415520 0.241155 -0.659090
v -1.567468 0.289780 0.000000
v -1.500000 0.171734 0.000000
v -1.504199 0.170210 -0.062500
v -1.573391 0.285755 -0.069066
v -1.655634 0.173220 -0.218304
v -1.588036 0.079477 0.000000
v -1.701881 0.278666 0.000000
v -1.736443 0.010013 0.000000
v -1.838133 0.187936 0.000000
v -1.865898 0.053087 -0.231932
v -1.714810 -0.025366 0.000000
v -1.856560 0.222648 0.000000
v -1.885885 0.041721 -0.289741
v -1.706135 0.027335 -0.013699
v -1.807825 0.205258 -0.013699
v -1.835591 0.070409 -0.245631
v -2.340014 -0.136472 1.000000
v 0.263223 0.250000 0.559194
v -1.733594 -0.012191 0.500000
v 0.800000 0.250000 0.250000
v -1.733594 0.237809 0.500000
v -0.683884 0.250000 0.795971
v -1.116116 0.243372 0.904029
v -1.019901 0.347293 0.652014
v -0.600099 0.327707 0.597986
v -1.019901 0.096310 0.452014
v -0.600099 0.115895 0.397986
v -0.627739 0.454137 0.493839
v -0.850997 0.464553 0.522573
v 0.950000 0.250000 0.125000
v -0.376851 0.376214 0.298993
v -0.971793 0.075863 0.226007
v -1.534161 0.382573 0.257601
v -1.516797 0.003904 0.250000
v -0.790437 0.405592 0.326007
v -0.558207 0.105240 0.198993
v -0.417059 0.490988 0.246920
v -0.671268 0.509906 0.261286
v -1.516797 0.243904 0.250000
v 0.286574 0.313107 0.211996
v -2.183456 0.578022 0.250000
v 1.025000 0.250000 0.062500
v -0.675706 0.434742 0.163004
v -0.537261 0.099913 0.099496
v -0.581403 0.532582 0.130643
v -0.265227 0.400468 0.149496
v -0.947739 0.065639 0.113004
v -1.517081 0.441286 0.128800
v -1.508399 0.001951 0.125000
v -0.311719 0.509414 0.123460
v 0.164799 0.351471 0.117082
v 0.290391 0.292070 0.173598
v 0.228667 0.310692 0.129098
v -0.340264 0.316220 0.546542
v 0.097322 0.289000 0.424646
v -0.382633 0.338474 0.447832
v -0.410502 0.281173 0.670342
v -0.354099 0.244980 0.562651
v -0.393942 0.269544 0.464806
v -0.415520 0.241155 0.659090
v -1.504199 0.170210 0.062500
v -1.573391 0.285755 0.069066
v -1.655634 0.173220 0.218304
v -1.865898 0.053087 0.231932
v -1.885885 0.041721 0.289741
v -1.706135 0.027335 0.013699
v -1.807825 0.205258 0.013699
v -1.835591 0.070409 0.245631
vn -0.6362 -0.0000 0.7716
vn 0.0987 -0.9582 -0.2684
vn 0.0926 0.9511 -0.2948
vn 0.2536 -0.9443 -0.2098
vn 0.0172 0.9552 -0.2954
vn 0.0917 -0.9395 -0.3302
vn 0.6136 0.5435 -0.5727
vn 0.1112 0.9848 -0.1334
vn 0.0906 0.9104 -0.4037
vn 0.0668 -0.9940 -0.0869
vn 0.1464 -0.9851 -0.0905
vn -0.2387 0.9049 -0.3524
vn 0.1021 -0.9904 -0.0930
vn -0.7555 -0.0000 0.6552
vn 0.1269 0.6471 -0.7518
vn 0.0913 0.9696 -0.2270
vn -0.0000 -0.0000 1.0000
vn -0.4875 -0.8422 0.2303
vn 0.2312 0.7900 -0.5679
vn -0.7242 0.5572 0.4062
vn -0.7123 0.5810 0.3937
vn 0.0795 0.9726 -0.2184
vn 0.0984 -0.9910 -0.0909
vn 0.1237 -0.9900 -0.0675
vn 0.0811 -0.9927 -0.0898
vn 0.1071 0.9783 -0.1775
vn 0.6574 0.4625 -0.5949
vn -0.1250 0.9605 -0.2488
vn 0.1609 0.5023 -0.8496
vn 0.1250 0.9623 -0.2414
vn 0.1311 0.9607 -0.2445
vn 0.6875 0.3965 -0.6084
vn 0.0906 -0.9917 -0.0918
vn 0.1046 -0.9924 -0.0650
vn 0.0963 -0.9913 -0.0896
vn -0.4330 -0.8640 0.2571
vn -0.7194 0.5670 0.4012
vn 0.2831 0.8039 -0.5231
vn -0.9978 -0.0000 0.0670
vn 0.0872 0.9707 -0.2240
vn -0.0279 0.9606 -0.2766
vn 0.1049 0.9608 -0.2565
vn 0.1341 0.9621 -0.2373
vn 0.5317 0.7501 0.3933
vn -0.0584 0.8730 0.4841
vn -0.0179 0.9680 -0.2503
vn -0.4199 0.2941 0.8586
vn 0.0704 0.2276 -0.9712
vn -0.1054 0.9940 0.0277
vn 0.8686 -0.2559 0.4243
vn 0.8612 -0.1244 -0.4929
vn 0.0875 0.9263 -0.3665
vn -0.8452 -0.5144 -0.1454
vn 0.5312 -0.7553 -0.3839
vn -0.3129 0.8229 -0.4743
vn -0.2509 0.8924 -0.3751
vn 0.6711 0.3652 -0.6452
vn 0.5798 -0.7326 0.3565
vn 0.5497 -0.6867 -0.4756
vn -0.8020 -0.4754 0.3616
vn -0.8170 -0.4494 0.3614
vn -0.8082 -0.4619 0.3653
vn -0.3397 0.8724 0.3516
vn -0.3172 -0.1813 -0.9309
vn 0.1037 0.9700 -0.2198
vn 0.0958 0.9814 -0.1663
vn 0.1172 0.9664 -0.2286
vn -0.6362 -0.0000 -0.7716
vn 0.0987 -0.9582 0.2684
vn 0.0926 0.9511 0.2948
vn 0.2536 -0.9443 0.2098
vn 0.0172 0.9552 0.2954
vn 0.0917 -0.9395 0.3302
vn 0.6136 0.5435 0.5727
vn 0.1112 0.9848 0.1334
vn 0.0906 0.9104 0.4037
vn 0.0668 -0.9940 0.0869
vn 0.1464 -0.9851 0.0905
vn -0.2387 0.9049 0.3524
vn 0.1021 -0.9904 0.0930
vn -0.7555 -0.0000 -0.6552
vn 0.1269 0.6471 0.7518
vn 0.0913 0.9696 0.2270
vn -0.4875 -0.8422 -0.2303
vn 0.2312 0.7900 0.5679
vn -0.7242 0.5572 -0.4062
vn -0.7123 0.5810 -0.3937
vn 0.0795 0.9726 0.2184
vn 0.0984 -0.9910 0.0909
vn 0.1237 -0.9900 0.0675
vn 0.0811 -0.9927 0.0898
vn 0.1071 0.9783 0.1775
vn 0.6574 0.4625 0.5949
vn -0.1250 0.9605 0.2488
vn 0.1609 0.5023 0.8496
vn 0.1250 0.9623 0.2414
vn 0.1311 0.9607 0.2445
vn 0.6875 0.3965 0.6084
vn 0.0906 -0.9917 0.0918
vn 0.1046 -0.9924 0.0650
vn 0.0963 -0.9913 0.0896
vn -0.4330 -0.8640 -0.2571
vn -0.7194 0.5670 -0.4012
vn 0.2831 0.8039 0.5231
vn -0.9978 -0.0000 -0.0670
vn 0.0872 0.9707 0.2240
vn -0.0279 0.9606 0.2766
vn 0.1049 0.9608 0.2565
vn 0.1341 0.9621 0.2373
vn 0.5317 0.7501 -0.3933
vn -0.0584 0.8730 -0.4841
vn -0.0179 0.9680 0.2503
vn -0.4199 0.2941 -0.8586
vn 0.0704 0.2276 0.9712
vn -0.1054 0.9940 -0.0277
vn 0.8686 -0.2559 -0.4243
vn 0.8612 -0.1244 0.4929
vn 0.0875 0.9263 0.3665
vn -0.8452 -0.5144 0.1454
vn 0.5312 -0.7553 0.3839
vn -0.3129 0.8229 0.4743
vn -0.2509 0.8924 0.3751
vn 0.6711 0.3652 0.6452
vn 0.5798 -0.7326 -0.3565
vn 0.5497 -0.6867 0.4756
vn -0.8020 -0.4754 -0.3616
vn -0.8170 -0.4494 -0.3614
vn -0.8082 -0.4619 -0.3653
vn -0.3397 0.8724 -0.3516
vn -0.3172 -0.1813 0.9309
vn 0.1037 0.9700 0.2198
vn 0.0958 0.9814 0.1663
vn 0.1172 0.9664 0.2286
vt 0.500000 0.187500
vt 0.562500 0.187500
vt 0.500000 0.250000
vt 0.500000 0.562500
vt 0.500000 0.333092
vt 0.500000 0.352014
vt 0.500000 0.470403
vt 0.654597 0.500000
vt 0.772986 0.500000
vt 0.747254 0.530483
vt 0.701135 0.562500
vt 0.500000 0.266908
vt 0.500000 0.297986
vt 0.820514 0.609375
vt 0.872322 0.609375
vt 0.875000 0.625000
vt 0.819585 0.625000
vt 0.778557 0.593750
vt 0.776700 0.562500
vt 0.625000 0.593750
vt 0.701779 0.593750
vt 0.625000 0.625000
vt 0.625000 0.609375
vt 0.827014 0.500000
vt 0.823300 0.562500
vt 0.500000 0.251369
vt 0.500000 0.323631
vt 0.500000 0.156250
vt 0.875000 0.500000
vt 0.875000 0.562500
vt 0.500000 0.593750
vt 0.562500 0.156250
vt 0.812104 0.562500
vt 0.817715 0.609375
vt 0.780415 0.625000
vt 0.779486 0.609375
vt 0.000000 0.000000
vt 0.875000 0.593750
vt 0.323709 0.112717
vt 0.052090 0.037207
vt 0.869644 0.593750
vt 0.821442 0.593750
vt 0.815844 0.593750
vt 0.500000 0.609375
vt 0.500000 0.318901
vt 0.500000 0.243599
vt 0.500000 0.140625
vt 0.625000 0.562500
vt 0.728212 0.609375
vt 0.717597 0.606221
vt 0.719578 0.625000
vt 0.500000 0.235830
vt 0.500000 0.314170
vt 0.500000 0.125000
vt 0.500000 0.625000
vt 0.560587 0.134462
vt 0.349532 0.089879
vt 0.704625 0.598879
vt 0.751843 0.551411
vt 0.760284 0.570710
vt 0.763468 0.575060
vt 0.754274 0.562500
vt 0.156530 0.039133
vt 0.087220 0.041776
vt 0.300602 0.079562
vt 0.162144 0.043157
s 0
usemtl Material.006
f 5/1/1 7/2/1 1/3/1
f 6/4/2 18/5/2 13/6/2 2/7/2
f 2/8/3 13/9/3 52/10/3 50/11/3
f 17/12/4 5/1/4 1/3/4 14/13/4
f 38/14/5 43/15/5 3/16/5 10/17/5
f 17/12/6 14/13/6 13/6/6 18/5/6
f 24/20/8 34/21/8 4/22/8 37/23/8
f 14/24/9 15/25/9 16/19/9 13/9/9
f 26/26/10 17/12/10 18/5/10 30/27/10
f 26/26/11 28/28/11 5/1/11 17/12/11
f 14/24/12 1/29/12 7/30/12 15/25/12
f 24/31/13 30/27/13 18/5/13 6/4/13
f 28/28/14 33/32/14 7/2/14 5/1/14
f 23/16/18 36/38/18 59/39/18 56/40/18
f 43/15/19 27/41/19 7/30/19 36/38/19
f 37/44/23 39/45/23 30/27/23 24/31/23
f 42/46/24 44/47/24 28/28/24 26/26/24
f 42/46/25 26/26/25 30/27/25 39/45/25
f 6/48/26 50/11/26 34/21/26 24/20/26
f 15/25/28 7/30/28 27/41/28 29/42/28
f 46/49/29 4/22/29 48/50/29
f 46/49/30 34/21/30 25/18/30 41/36/30
f 35/51/31 46/49/31 41/36/31 9/35/31
f 11/52/33 42/46/33 39/45/33 12/53/33
f 11/52/34 8/54/34 44/47/34 42/46/34
f 4/55/35 12/53/35 39/45/35 37/44/35
f 7/2/36 33/32/36 59/56/36 36/32/36
f 3/16/38 43/15/38 36/38/38 23/16/38
f 44/47/39 58/57/39 33/32/39 28/28/39
f 29/42/41 27/41/41 43/15/41 38/14/41
f 4/22/42 47/58/42 48/50/42
f 46/49/43 35/51/43 4/22/43
f 34/21/44 46/49/44 48/50/44 47/58/44
f 4/22/45 34/21/45 47/58/45
f 53/59/46 54/60/46 50/11/46
f 50/11/47 52/10/47 55/10/47
f 51/61/48 50/11/48 54/60/48
f 50/11/49 55/10/49 53/59/49
f 49/62/50 51/61/50 54/60/50 53/59/50
f 52/10/51 49/62/51 53/59/51 55/10/51
f 52/10/52 13/9/52 16/19/52 49/62/52
f 58/57/53 59/56/53 33/32/53
f 8/54/39 57/63/39 58/57/39 44/47/39
f 59/56/57 58/57/57 60/56/57
f 25/18/65 51/61/65 49/62/65 16/19/65
f 50/11/66 6/48/66 2/8/66
f 34/21/67 50/11/67 51/61/67 25/18/67
f 74/1/68 72/3/68 76/2/68
f 75/4/69 73/7/69 77/6/69 82/5/69
f 73/8/70 110/11/70 112/10/70 77/9/70
f 81/12/71 78/13/71 72/3/71 74/1/71
f 98/14/72 10/17/72 3/16/72 103/15/72
f 81/12/73 82/5/73 77/6/73 78/13/73
f 85/20/75 97/23/75 4/22/75 95/21/75
f 78/24/76 77/9/76 80/19/76 79/25/76
f 87/26/77 91/27/77 82/5/77 81/12/77
f 87/26/78 81/12/78 74/1/78 89/28/78
f 78/24/79 79/25/79 76/30/79 72/29/79
f 85/31/80 75/4/80 82/5/80 91/27/80
f 89/28/81 74/1/81 76/2/81 94/32/81
f 23/16/84 56/40/84 117/39/84 96/38/84
f 103/15/85 96/38/85 76/30/85 88/41/85
f 97/44/89 85/31/89 91/27/89 99/45/89
f 102/46/90 87/26/90 89/28/90 104/47/90
f 102/46/91 99/45/91 91/27/91 87/26/91
f 75/48/92 85/20/92 95/21/92 110/11/92
f 79/25/94 90/42/94 88/41/94 76/30/94
f 106/49/95 108/50/95 4/22/95
f 106/49/96 101/36/96 86/18/96 95/21/96
f 35/51/97 9/35/97 101/36/97 106/49/97
f 11/52/99 12/53/99 99/45/99 102/46/99
f 11/52/100 102/46/100 104/47/100 8/54/100
f 4/55/101 97/44/101 99/45/101 12/53/101
f 76/2/102 96/32/102 117/56/102 94/32/102
f 3/16/104 23/16/104 96/38/104 103/15/104
f 104/47/105 89/28/105 94/32/105 116/57/105
f 90/42/107 98/14/107 103/15/107 88/41/107
f 4/22/108 108/50/108 107/58/108
f 106/49/109 4/22/109 35/51/109
f 95/21/110 107/58/110 108/50/110 106/49/110
f 4/22/111 107/58/111 95/21/111
f 113/59/112 110/11/112 114/60/112
f 110/11/113 115/10/113 112/10/113
f 111/61/114 114/60/114 110/11/114
f 110/11/115 113/59/115 115/10/115
f 109/62/116 113/59/116 114/60/116 111/61/116
f 112/10/117 115/10/117 113/59/117 109/62/117
f 112/10/118 109/62/118 80/19/118 77/9/118
f 116/57/119 94/32/119 117/56/119
f 8/54/105 104/47/105 116/57/105 57/63/105
f 117/56/123 118/56/123 116/57/123
f 86/18/131 80/19/131 109/62/131 111/61/131
f 110/11/132 73/8/132 75/48/132
f 95/21/133 86/18/133 111/61/133 110/11/133
usemtl Material.007
f 25/18/7 16/19/7 20/19/7 31/18/7
f 16/19/15 15/25/15 21/33/15 20/19/15
f 40/34/16 22/17/16 19/35/16 45/36/16
f 10/37/17 9/37/17 19/37/17 22/37/17
f 38/14/20 10/17/20 22/17/20 40/34/20
f 15/25/21 29/42/21 32/43/21 21/33/21
f 21/33/22 32/43/22 31/18/22 20/19/22
f 41/36/27 25/18/27 31/18/27 45/36/27
f 9/35/32 41/36/32 45/36/32 19/35/32
f 29/42/37 38/14/37 40/34/37 32/43/37
f 32/43/40 40/34/40 45/36/40 31/18/40
f 86/18/74 92/18/74 83/19/74 80/19/74
f 80/19/82 83/19/82 84/33/82 79/25/82
f 100/34/83 105/36/83 19/35/83 22/17/83
f 98/14/86 100/34/86 22/17/86 10/17/86
f 79/25/87 84/33/87 93/43/87 90/42/87
f 84/33/88 83/19/88 92/18/88 93/43/88
f 101/36/93 105/36/93 92/18/93 86/18/93
f 9/35/98 19/35/98 105/36/98 101/36/98
f 90/42/103 93/43/103 100/34/103 98/14/103
f 93/43/106 92/18/106 105/36/106 100/34/106
usemtl Material.008
f 58/57/54 57/63/54 61/63/54 60/57/54
f 62/40/55 60/39/55 68/39/55 67/40/55
f 57/37/17 56/37/17 62/37/17 61/37/17
f 56/40/56 59/39/56 60/39/56 62/40/56
f 64/64/58 65/65/58 71/65/58 70/64/58
f 60/57/59 61/63/59 66/63/59 68/57/59
f 63/66/60 65/65/60 68/57/60 66/63/60
f 65/65/61 64/64/61 67/40/61 68/57/61
f 70/64/62 71/65/62 69/66/62
f 65/65/63 63/66/63 69/66/63 71/65/63
f 63/37/64 64/37/64 70/37/64 69/37/64
f 116/57/120 118/57/120 61/63/120 57/63/120
f 62/40/121 67/40/121 120/39/121 118/39/121
f 56/40/122 62/40/122 118/39/122 117/39/122
f 64/64/124 122/64/124 123/65/124 119/65/124
f 118/57/125 120/57/125 66/63/125 61/63/125
f 63/66/126 66/63/126 120/57/126 119/65/126
f 119/65/127 120/57/127 67/40/127 64/64/127
f 122/64/128 121/66/128 123/65/128
f 119/65/129 123/65/129 121/66/129 63/66/129
f 63/37/130 121/37/130 122/37/130 64/37/130
